<mxfile host="drawio-plugin" modified="2024-04-19T14:34:40.736Z" agent="5.0 (Windows NT 10.0; Win64; x64) AppleWebKit/537.36 (KHTML, like Gecko) Chrome/122.0.0.0 Safari/537.36" etag="cpu9j4f7EAi1rt2b23zL" version="20.5.3" type="embed"><diagram name="Seite-1" id="VH71Olbo8Z-LvbqJ2Q5k"><mxGraphModel dx="669" dy="600" grid="1" gridSize="10" guides="1" tooltips="1" connect="1" arrows="1" fold="1" page="1" pageScale="1" pageWidth="827" pageHeight="1169" math="0" shadow="0"><root><mxCell id="0"/><mxCell id="1" parent="0"/><mxCell id="uonYmJvlZDU0ERn19EDY-126" value="Start" style="ellipse;whiteSpace=wrap;html=1;aspect=fixed;" parent="1" vertex="1"><mxGeometry x="20" y="185" width="70" height="70" as="geometry"/></mxCell><mxCell id="uonYmJvlZDU0ERn19EDY-127" value="Login" style="rounded=1;whiteSpace=wrap;html=1;" parent="1" vertex="1"><mxGeometry x="190" y="190" width="120" height="60" as="geometry"/></mxCell><mxCell id="uonYmJvlZDU0ERn19EDY-128" value="" style="edgeStyle=elbowEdgeStyle;elbow=horizontal;endArrow=classic;html=1;curved=0;rounded=0;endSize=8;startSize=8;exitX=1;exitY=0.5;exitDx=0;exitDy=0;entryX=0;entryY=0.5;entryDx=0;entryDy=0;" parent="1" source="uonYmJvlZDU0ERn19EDY-126" target="uonYmJvlZDU0ERn19EDY-127" edge="1"><mxGeometry width="50" height="50" relative="1" as="geometry"><mxPoint x="100" y="250" as="sourcePoint"/><mxPoint x="150" y="200" as="targetPoint"/></mxGeometry></mxCell><mxCell id="uonYmJvlZDU0ERn19EDY-129" value="Dashboard" style="rounded=1;whiteSpace=wrap;html=1;" parent="1" vertex="1"><mxGeometry x="430" y="190" width="120" height="60" as="geometry"/></mxCell><mxCell id="uonYmJvlZDU0ERn19EDY-130" value="" style="endArrow=classic;html=1;rounded=0;exitX=1;exitY=0.5;exitDx=0;exitDy=0;entryX=0;entryY=0.5;entryDx=0;entryDy=0;" parent="1" source="uonYmJvlZDU0ERn19EDY-127" target="uonYmJvlZDU0ERn19EDY-129" edge="1"><mxGeometry relative="1" as="geometry"><mxPoint x="360" y="230" as="sourcePoint"/><mxPoint x="320" y="260" as="targetPoint"/></mxGeometry></mxCell><mxCell id="uonYmJvlZDU0ERn19EDY-131" value="Label" style="edgeLabel;resizable=0;html=1;;align=center;verticalAlign=middle;" parent="uonYmJvlZDU0ERn19EDY-130" connectable="0" vertex="1"><mxGeometry relative="1" as="geometry"/></mxCell><mxCell id="uonYmJvlZDU0ERn19EDY-134" value="Anmeldung" style="edgeLabel;html=1;align=center;verticalAlign=middle;resizable=0;points=[];" parent="uonYmJvlZDU0ERn19EDY-130" vertex="1" connectable="0"><mxGeometry x="0.02" y="1" relative="1" as="geometry"><mxPoint as="offset"/></mxGeometry></mxCell><mxCell id="uonYmJvlZDU0ERn19EDY-135" value="Karten- und Snackverkauf" style="rounded=1;whiteSpace=wrap;html=1;" parent="1" vertex="1"><mxGeometry x="430" y="40" width="120" height="60" as="geometry"/></mxCell><mxCell id="uonYmJvlZDU0ERn19EDY-136" value="" style="endArrow=classic;startArrow=classic;html=1;rounded=0;entryX=0.5;entryY=1;entryDx=0;entryDy=0;exitX=0.5;exitY=0;exitDx=0;exitDy=0;" parent="1" source="uonYmJvlZDU0ERn19EDY-129" target="uonYmJvlZDU0ERn19EDY-135" edge="1"><mxGeometry width="50" height="50" relative="1" as="geometry"><mxPoint x="380" y="200" as="sourcePoint"/><mxPoint x="430" y="150" as="targetPoint"/></mxGeometry></mxCell><mxCell id="uonYmJvlZDU0ERn19EDY-137" value="" style="line;strokeWidth=4;direction=south;html=1;perimeter=backbonePerimeter;points=[];outlineConnect=0;" parent="1" vertex="1"><mxGeometry x="440" y="340" width="10" height="160" as="geometry"/></mxCell><mxCell id="uonYmJvlZDU0ERn19EDY-138" value="" style="endArrow=classic;html=1;rounded=0;exitX=0;exitY=1;exitDx=0;exitDy=0;" parent="1" source="uonYmJvlZDU0ERn19EDY-129" target="uonYmJvlZDU0ERn19EDY-137" edge="1"><mxGeometry relative="1" as="geometry"><mxPoint x="370" y="440" as="sourcePoint"/><mxPoint x="440" y="430" as="targetPoint"/><Array as="points"><mxPoint x="340" y="250"/><mxPoint x="340" y="430"/></Array></mxGeometry></mxCell><mxCell id="uonYmJvlZDU0ERn19EDY-139" value="Label" style="edgeLabel;resizable=0;html=1;;align=center;verticalAlign=middle;" parent="uonYmJvlZDU0ERn19EDY-138" connectable="0" vertex="1"><mxGeometry relative="1" as="geometry"/></mxCell><mxCell id="uonYmJvlZDU0ERn19EDY-142" value="Autorisationabfrage" style="edgeLabel;html=1;align=center;verticalAlign=middle;resizable=0;points=[];" parent="uonYmJvlZDU0ERn19EDY-138" vertex="1" connectable="0"><mxGeometry x="0.115" relative="1" as="geometry"><mxPoint as="offset"/></mxGeometry></mxCell><mxCell id="uonYmJvlZDU0ERn19EDY-143" value="Verwaltung von Ressourcen/ Saalvermietung/ Wirtschaftsdaten/ ..." style="rounded=1;whiteSpace=wrap;html=1;" parent="1" vertex="1"><mxGeometry x="550" y="340" width="120" height="60" as="geometry"/></mxCell><mxCell id="uonYmJvlZDU0ERn19EDY-144" value="Systemablehnung" style="rounded=1;whiteSpace=wrap;html=1;" parent="1" vertex="1"><mxGeometry x="550" y="440" width="120" height="60" as="geometry"/></mxCell><mxCell id="uonYmJvlZDU0ERn19EDY-151" value="" style="endArrow=classic;html=1;rounded=0;entryX=0;entryY=0.5;entryDx=0;entryDy=0;" parent="1" source="uonYmJvlZDU0ERn19EDY-137" target="uonYmJvlZDU0ERn19EDY-143" edge="1"><mxGeometry relative="1" as="geometry"><mxPoint x="120" y="460" as="sourcePoint"/><mxPoint x="220" y="460" as="targetPoint"/></mxGeometry></mxCell><mxCell id="uonYmJvlZDU0ERn19EDY-153" value="Ja" style="edgeLabel;html=1;align=center;verticalAlign=middle;resizable=0;points=[];" parent="uonYmJvlZDU0ERn19EDY-151" vertex="1" connectable="0"><mxGeometry x="-0.0243" y="-2" relative="1" as="geometry"><mxPoint as="offset"/></mxGeometry></mxCell><mxCell id="uonYmJvlZDU0ERn19EDY-155" value="ja" style="edgeLabel;html=1;align=center;verticalAlign=middle;resizable=0;points=[];" parent="uonYmJvlZDU0ERn19EDY-151" vertex="1" connectable="0"><mxGeometry x="-0.0243" y="-2" relative="1" as="geometry"><mxPoint as="offset"/></mxGeometry></mxCell><mxCell id="uonYmJvlZDU0ERn19EDY-156" value="" style="endArrow=classic;html=1;rounded=0;exitX=1;exitY=0.5;exitDx=0;exitDy=0;entryX=1;entryY=0.5;entryDx=0;entryDy=0;" parent="1" source="uonYmJvlZDU0ERn19EDY-143" target="uonYmJvlZDU0ERn19EDY-129" edge="1"><mxGeometry relative="1" as="geometry"><mxPoint x="600" y="210" as="sourcePoint"/><mxPoint x="720" y="220" as="targetPoint"/><Array as="points"><mxPoint x="720" y="370"/><mxPoint x="720" y="220"/></Array></mxGeometry></mxCell><mxCell id="uonYmJvlZDU0ERn19EDY-157" value="Rückkehr zum Dashboard" style="edgeLabel;resizable=0;html=1;;align=center;verticalAlign=middle;" parent="uonYmJvlZDU0ERn19EDY-156" connectable="0" vertex="1"><mxGeometry relative="1" as="geometry"/></mxCell><mxCell id="uonYmJvlZDU0ERn19EDY-158" value="" style="endArrow=classic;html=1;rounded=0;entryX=0;entryY=0.5;entryDx=0;entryDy=0;" parent="1" source="uonYmJvlZDU0ERn19EDY-137" target="uonYmJvlZDU0ERn19EDY-144" edge="1"><mxGeometry relative="1" as="geometry"><mxPoint x="280" y="300" as="sourcePoint"/><mxPoint x="380" y="300" as="targetPoint"/></mxGeometry></mxCell><mxCell id="uonYmJvlZDU0ERn19EDY-159" value="nein" style="edgeLabel;resizable=0;html=1;;align=center;verticalAlign=middle;" parent="uonYmJvlZDU0ERn19EDY-158" connectable="0" vertex="1"><mxGeometry relative="1" as="geometry"/></mxCell><mxCell id="uonYmJvlZDU0ERn19EDY-165" value="" style="endArrow=none;html=1;rounded=0;exitX=1;exitY=0.5;exitDx=0;exitDy=0;" parent="1" source="uonYmJvlZDU0ERn19EDY-144" edge="1"><mxGeometry width="50" height="50" relative="1" as="geometry"><mxPoint x="480" y="600" as="sourcePoint"/><mxPoint x="720" y="370" as="targetPoint"/><Array as="points"><mxPoint x="720" y="470"/></Array></mxGeometry></mxCell><mxCell id="uonYmJvlZDU0ERn19EDY-167" value="" style="endArrow=classic;html=1;rounded=0;entryX=0.5;entryY=1;entryDx=0;entryDy=0;exitX=1;exitY=0.25;exitDx=0;exitDy=0;" parent="1" source="uonYmJvlZDU0ERn19EDY-129" target="2" edge="1"><mxGeometry relative="1" as="geometry"><mxPoint x="590" y="180" as="sourcePoint"/><mxPoint x="650" y="110" as="targetPoint"/><Array as="points"><mxPoint x="650" y="205"/></Array></mxGeometry></mxCell><mxCell id="uonYmJvlZDU0ERn19EDY-168" value="Logout" style="edgeLabel;resizable=0;html=1;;align=center;verticalAlign=middle;" parent="uonYmJvlZDU0ERn19EDY-167" connectable="0" vertex="1"><mxGeometry relative="1" as="geometry"/></mxCell><mxCell id="2" value="" style="ellipse;html=1;shape=endState;fillColor=#000000;strokeColor=#ff0000;" vertex="1" parent="1"><mxGeometry x="610" y="30" width="80" height="80" as="geometry"/></mxCell></root></mxGraphModel></diagram></mxfile>